<svg width="1091" height="689" viewBox="0 0 1091 689" fill="none" xmlns="http://www.w3.org/2000/svg">
<g clip-path="url(#clip0_1_325)">
<path d="M0 0H1091V413.399C1091 413.399 1064.3 444.156 1064.3 497.938C1064.3 551.72 1091 582.37 1091 582.37V688.542H0V0Z" fill="#50FFEB"/>
<path d="M307.288 282.715C308.093 283.832 308.763 285.038 309.165 286.379C309.612 287.719 309.88 289.104 309.88 290.578C309.88 292.052 309.612 293.482 309.165 294.778C308.763 296.073 308.093 297.324 307.244 298.441C306.127 299.96 306.44 302.06 307.959 303.177C309.478 304.294 311.577 303.981 312.694 302.462C313.901 300.809 314.884 298.933 315.598 296.967C316.269 294.956 316.626 292.812 316.626 290.578C316.626 288.344 316.269 286.2 315.598 284.234C314.928 282.224 313.901 280.392 312.694 278.739C311.577 277.264 309.478 276.907 307.959 278.024C306.44 279.141 306.127 281.241 307.244 282.76" fill="#00AF9A"/>
<path d="M318.859 276.416C321.406 280.526 322.88 285.351 322.88 290.578C322.88 295.806 321.406 300.631 318.859 304.741C317.876 306.349 318.412 308.404 319.976 309.387C321.584 310.37 323.64 309.879 324.622 308.27C327.795 303.132 329.626 297.056 329.626 290.578C329.626 284.1 327.795 278.024 324.622 272.886C323.64 271.278 321.54 270.787 319.976 271.769C318.412 272.752 317.921 274.852 318.859 276.416Z" fill="#00AF9A"/>
<path d="M331.146 269.982C334.675 276.013 336.686 283.028 336.686 290.578C336.686 298.129 334.675 305.098 331.101 311.13C330.163 312.738 330.699 314.838 332.307 315.776C333.916 316.714 335.971 316.178 336.909 314.57C341.019 307.511 343.387 299.335 343.387 290.578C343.387 281.822 341.019 273.646 336.909 266.587C335.971 264.978 333.916 264.442 332.307 265.38C330.699 266.319 330.163 268.374 331.101 269.982" fill="#00AF9A"/>
<path d="M343.388 263.549C347.945 271.546 350.491 280.705 350.536 290.578C350.536 300.407 347.945 309.611 343.388 317.608C342.494 319.216 343.03 321.271 344.639 322.209C346.247 323.148 348.302 322.567 349.24 320.958C354.333 312.023 357.237 301.613 357.237 290.578C357.237 279.543 354.333 269.178 349.24 260.198C348.302 258.59 346.247 258.009 344.639 258.947C342.985 259.885 342.449 261.94 343.388 263.549Z" fill="#00AF9A"/>
<path d="M307.288 282.715C308.093 283.832 308.763 285.038 309.165 286.379C309.612 287.719 309.88 289.104 309.88 290.578C309.88 292.052 309.612 293.482 309.165 294.778C308.763 296.073 308.093 297.324 307.244 298.441C306.127 299.96 306.44 302.06 307.959 303.177C309.478 304.294 311.577 303.981 312.694 302.462C313.901 300.809 314.884 298.933 315.598 296.967C316.269 294.956 316.626 292.812 316.626 290.578C316.626 288.344 316.269 286.2 315.598 284.234C314.928 282.224 313.901 280.392 312.694 278.739C311.577 277.264 309.478 276.907 307.959 278.024C306.44 279.141 306.127 281.241 307.244 282.76" fill="#321E37"/>
<path d="M318.859 276.416C321.406 280.526 322.88 285.351 322.88 290.578C322.88 295.806 321.406 300.631 318.859 304.741C317.876 306.349 318.412 308.404 319.976 309.387C321.584 310.37 323.64 309.879 324.622 308.27C327.795 303.132 329.626 297.056 329.626 290.578C329.626 284.1 327.795 278.024 324.622 272.886C323.64 271.278 321.54 270.787 319.976 271.769C318.412 272.752 317.921 274.852 318.859 276.416Z" fill="#321E37"/>
<path d="M331.102 269.982C334.631 276.013 336.642 283.028 336.642 290.578C336.642 298.129 334.631 305.098 331.057 311.13C330.119 312.738 330.655 314.838 332.264 315.776C333.872 316.714 335.927 316.178 336.865 314.57C340.976 307.511 343.343 299.335 343.343 290.578C343.343 281.822 340.976 273.646 336.865 266.587C335.927 264.978 333.872 264.442 332.264 265.38C330.655 266.319 330.119 268.374 331.057 269.982" fill="#321E37"/>
<path d="M343.388 263.549C347.945 271.546 350.491 280.705 350.536 290.578C350.536 300.407 347.945 309.611 343.388 317.608C342.494 319.216 343.03 321.271 344.639 322.209C346.247 323.148 348.302 322.567 349.24 320.958C354.333 312.023 357.237 301.613 357.237 290.578C357.237 279.543 354.333 269.178 349.24 260.198C348.302 258.59 346.247 258.009 344.639 258.947C342.985 259.885 342.449 261.94 343.388 263.549Z" fill="#321E37"/>
<path d="M941.877 496.896H880.223V607.695H941.877V496.896Z" fill="#F26122"/>
<path d="M884.154 552.295C884.154 529.823 894.698 509.808 911.05 496.896C899.077 487.469 883.931 481.84 867.49 481.84C828.576 481.84 797.035 513.382 797.035 552.295C797.035 591.209 828.576 622.751 867.49 622.751C883.931 622.751 899.032 617.121 911.05 607.695C894.654 594.783 884.154 574.768 884.154 552.295Z" fill="#ED1C24"/>
<path d="M1025.02 552.295C1025.02 591.209 993.48 622.751 954.566 622.751C938.125 622.751 923.024 617.121 911.006 607.695C927.403 594.783 937.902 574.768 937.902 552.295C937.902 529.823 927.358 509.807 911.006 496.896C922.98 487.469 938.125 481.84 954.566 481.84C993.48 481.84 1025.02 513.382 1025.02 552.295Z" fill="#F99F1C"/>
<path d="M638.924 566.324C640.399 566.324 641.65 566.592 642.677 567.128C643.705 567.664 644.598 568.334 645.313 569.183V558.46H651.166V588.662H645.447V586.249C644.732 587.143 643.839 587.858 642.767 588.394C641.694 588.93 640.443 589.198 638.924 589.198C637.405 589.198 636.02 588.885 634.769 588.305C633.474 587.724 632.357 586.92 631.419 585.892C630.48 584.865 629.721 583.658 629.229 582.273C628.693 580.888 628.425 579.369 628.425 577.716C628.425 576.063 628.693 574.589 629.229 573.159C629.766 571.774 630.48 570.568 631.419 569.54C632.357 568.513 633.474 567.709 634.769 567.128C636.065 566.547 637.45 566.234 638.924 566.234V566.324ZM639.997 571.774C639.148 571.774 638.388 571.953 637.673 572.266C636.959 572.578 636.378 573.025 635.886 573.561C635.395 574.097 635.037 574.723 634.769 575.482C634.501 576.197 634.367 577.001 634.367 577.806C634.367 578.61 634.501 579.414 634.769 580.129C635.037 580.844 635.395 581.469 635.886 582.005C636.378 582.541 636.959 582.988 637.673 583.301C638.388 583.614 639.148 583.792 639.997 583.792C640.846 583.792 641.605 583.658 642.275 583.345C642.945 583.033 643.571 582.631 644.062 582.095C644.554 581.558 644.956 580.933 645.224 580.173C645.492 579.459 645.626 578.654 645.626 577.806C645.626 576.957 645.492 576.153 645.224 575.438C644.956 574.723 644.554 574.053 644.062 573.517C643.571 572.98 642.99 572.578 642.275 572.266C641.56 571.953 640.846 571.819 639.997 571.819V571.774ZM666.892 566.324C668.456 566.324 669.885 566.592 671.181 567.173C672.477 567.709 673.594 568.513 674.532 569.496C675.47 570.479 676.185 571.685 676.676 573.114C677.212 574.499 677.436 576.063 677.436 577.761C677.436 578.118 677.436 578.476 677.436 578.833C677.436 579.191 677.391 579.503 677.347 579.771H661.933C662.067 580.576 662.335 581.246 662.692 581.782C663.05 582.363 663.452 582.809 663.943 583.167C664.435 583.524 664.971 583.792 665.596 583.971C666.222 584.15 666.847 584.239 667.562 584.239C668.5 584.239 669.439 584.06 670.422 583.703C671.405 583.345 672.253 582.809 673.057 582.139L676.498 585.892C675.247 587.009 673.862 587.858 672.298 588.394C670.734 588.93 669.081 589.198 667.205 589.198C665.552 589.198 664.033 588.93 662.648 588.394C661.263 587.858 660.056 587.098 659.074 586.071C658.091 585.088 657.287 583.882 656.751 582.497C656.214 581.112 655.902 579.548 655.902 577.85C655.902 576.152 656.17 574.589 656.706 573.159C657.242 571.73 658.001 570.523 658.94 569.54C659.923 568.513 661.039 567.753 662.424 567.173C663.765 566.592 665.239 566.324 666.892 566.324ZM666.847 571.372C665.462 571.372 664.345 571.774 663.541 572.534C662.737 573.293 662.201 574.365 661.933 575.706H671.539C671.271 574.321 670.734 573.204 669.93 572.489C669.126 571.73 668.098 571.372 666.803 571.372H666.847ZM694.368 566.324C695.887 566.324 697.272 566.636 698.523 567.217C699.819 567.798 700.936 568.602 701.874 569.63C702.812 570.657 703.572 571.864 704.108 573.248C704.644 574.633 704.912 576.153 704.912 577.806C704.912 579.459 704.644 580.933 704.108 582.363C703.572 583.748 702.857 584.954 701.919 585.981C700.981 587.009 699.864 587.813 698.568 588.394C697.272 588.975 695.887 589.287 694.413 589.287C692.939 589.287 691.643 589.019 690.571 588.483C689.498 587.947 688.65 587.232 687.935 586.339V588.751H682.216V558.55H688.024V569.272C688.739 568.423 689.633 567.753 690.66 567.217C691.688 566.681 692.939 566.413 694.413 566.413L694.368 566.324ZM693.296 571.774C692.447 571.774 691.688 571.908 691.018 572.221C690.347 572.534 689.767 572.936 689.275 573.472C688.784 574.008 688.382 574.634 688.114 575.393C687.845 576.108 687.712 576.912 687.712 577.761C687.712 578.61 687.845 579.414 688.114 580.129C688.382 580.844 688.784 581.514 689.275 582.05C689.767 582.586 690.347 582.988 691.018 583.301C691.688 583.614 692.447 583.748 693.296 583.748C694.145 583.748 694.949 583.569 695.619 583.256C696.289 582.943 696.915 582.497 697.362 581.961C697.853 581.424 698.211 580.799 698.479 580.084C698.747 579.369 698.881 578.565 698.881 577.761C698.881 576.957 698.747 576.153 698.479 575.438C698.211 574.723 697.853 574.053 697.362 573.517C696.87 572.98 696.289 572.534 695.619 572.221C694.949 571.908 694.145 571.729 693.296 571.729V571.774ZM715.411 588.662H709.558V566.904H715.411V588.662ZM737.035 572.132H729.172V580.084C729.172 580.754 729.261 581.335 729.44 581.782C729.618 582.273 729.842 582.631 730.155 582.943C730.467 583.256 730.78 583.435 731.182 583.569C731.584 583.703 731.986 583.792 732.433 583.792C733.148 583.792 733.863 583.658 734.533 583.345C735.248 583.033 735.918 582.72 736.499 582.363L738.643 586.92C737.705 587.59 736.633 588.126 735.471 588.573C734.31 589.019 732.969 589.243 731.45 589.243C728.725 589.243 726.714 588.483 725.329 587.009C723.989 585.535 723.274 583.39 723.274 580.531V572.132H719.075V566.904H723.274V560.426H729.127V566.904H736.99V572.132H737.035ZM712.418 556.271C712.954 556.271 713.445 556.361 713.892 556.539C714.339 556.718 714.741 556.986 715.099 557.344C715.456 557.701 715.679 558.058 715.903 558.55C716.081 558.997 716.215 559.488 716.215 560.024C716.215 560.56 716.126 561.052 715.903 561.498C715.724 561.945 715.456 562.347 715.099 562.705C714.741 563.062 714.384 563.286 713.892 563.509C713.445 563.688 712.954 563.777 712.418 563.777C711.882 563.777 711.39 563.688 710.943 563.509C710.497 563.33 710.095 563.062 709.737 562.705C709.38 562.347 709.156 561.99 708.933 561.498C708.754 561.052 708.665 560.56 708.665 560.024C708.665 559.488 708.754 558.997 708.933 558.55C709.112 558.103 709.38 557.701 709.737 557.344C710.095 556.986 710.452 556.763 710.943 556.539C711.39 556.361 711.882 556.271 712.418 556.271ZM655.231 541.751L661.397 524.015H665.284L657.51 545.638H653.087L646.877 528.036L640.711 545.638H636.333L628.559 524.015H632.535L638.656 541.707L644.822 524.015H649.021L655.231 541.751ZM678.821 523.568C680.474 523.568 681.993 523.836 683.378 524.417C684.763 524.998 685.969 525.757 686.997 526.785C688.024 527.812 688.829 528.974 689.409 530.359C689.99 531.744 690.258 533.218 690.258 534.826C690.258 536.435 689.99 537.909 689.409 539.294C688.829 540.679 688.024 541.841 686.997 542.868C685.969 543.896 684.763 544.655 683.378 545.236C681.993 545.817 680.474 546.085 678.821 546.085C677.168 546.085 675.649 545.817 674.264 545.236C672.879 544.655 671.673 543.896 670.645 542.868C669.617 541.841 668.813 540.679 668.232 539.294C667.651 537.909 667.383 536.435 667.383 534.826C667.383 533.218 667.651 531.744 668.232 530.359C668.813 528.974 669.617 527.812 670.645 526.785C671.673 525.757 672.879 524.998 674.264 524.417C675.649 523.836 677.168 523.568 678.821 523.568ZM678.821 527.053C677.748 527.053 676.721 527.231 675.783 527.633C674.844 528.036 674.04 528.572 673.37 529.242C672.7 529.912 672.164 530.761 671.762 531.699C671.36 532.637 671.181 533.709 671.181 534.826C671.181 535.943 671.36 537.016 671.762 537.954C672.164 538.892 672.7 539.741 673.37 540.411C674.04 541.081 674.844 541.662 675.783 542.019C676.721 542.422 677.704 542.6 678.821 542.6C679.938 542.6 680.921 542.422 681.859 542.019C682.797 541.617 683.601 541.081 684.271 540.411C684.942 539.696 685.478 538.892 685.88 537.954C686.282 537.016 686.46 535.943 686.46 534.826C686.46 533.709 686.282 532.637 685.88 531.699C685.478 530.761 684.942 529.912 684.271 529.242C683.601 528.572 682.797 528.036 681.859 527.633C680.921 527.231 679.938 527.053 678.821 527.053ZM707.146 523.568C707.905 523.568 708.62 523.613 709.29 523.747C709.916 523.836 710.541 524.015 711.122 524.283L710.229 527.946C709.692 527.678 709.112 527.455 708.441 527.321C707.771 527.187 707.146 527.097 706.52 527.097C705.716 527.097 704.957 527.231 704.242 527.544C703.572 527.857 702.946 528.304 702.455 528.84C701.963 529.42 701.561 530.091 701.293 530.895C701.025 531.699 700.891 532.593 700.891 533.575V545.638H697.183V524.015H700.847V526.874C701.606 525.802 702.544 524.998 703.617 524.417C704.689 523.836 705.895 523.568 707.191 523.568H707.146ZM720.504 545.638H716.796V515.392H720.504V545.638ZM737.437 523.657C739.135 523.657 740.609 523.97 741.86 524.551C743.111 525.176 744.183 525.98 745.032 527.008V515.481H748.785V545.728H745.032V542.824C744.183 543.851 743.111 544.655 741.86 545.281C740.609 545.906 739.135 546.174 737.437 546.174C735.918 546.174 734.488 545.906 733.193 545.325C731.852 544.745 730.735 543.985 729.752 542.958C728.769 541.975 728.01 540.768 727.474 539.383C726.938 537.999 726.625 536.479 726.625 534.871C726.625 533.263 726.893 531.744 727.474 530.359C728.01 528.974 728.769 527.812 729.752 526.785C730.735 525.802 731.852 524.998 733.193 524.417C734.533 523.836 735.918 523.568 737.437 523.568V523.657ZM737.884 527.187C736.767 527.187 735.739 527.41 734.801 527.812C733.863 528.214 733.103 528.75 732.433 529.465C731.763 530.18 731.271 530.984 730.914 531.922C730.557 532.861 730.378 533.888 730.378 534.96C730.378 536.033 730.557 537.06 730.914 537.999C731.271 538.937 731.763 539.786 732.433 540.456C733.103 541.171 733.863 541.707 734.801 542.153C735.739 542.556 736.722 542.779 737.839 542.779C738.956 542.779 739.939 542.6 740.832 542.198C741.726 541.796 742.53 541.26 743.155 540.545C743.826 539.83 744.317 539.026 744.675 538.088C745.032 537.15 745.211 536.122 745.211 535.005C745.211 533.888 745.032 532.861 744.675 531.922C744.317 530.984 743.781 530.18 743.155 529.465C742.485 528.75 741.726 528.214 740.832 527.812C739.939 527.41 738.911 527.231 737.839 527.231L737.884 527.187Z" fill="#321E37"/>
<path d="M90.1142 65.5856C102.847 65.5856 114.821 73.5382 114.821 88.8624H100.435C100.435 82.0715 95.2967 78.542 90.3823 78.542C85.0211 78.542 80.3746 82.0715 80.3746 86.8966C80.3746 104.901 123.488 92.0344 123.488 123.621C123.488 139.705 110.085 151.052 92.0353 151.052C72.6009 151.052 58.5277 138.632 61.0743 117.053H76.0856C74.4326 128.803 79.4364 138.632 92.0353 138.632C102.132 138.632 108.119 132.109 108.119 124.246C108.119 104.008 65.542 119.287 65.542 86.9412C65.542 74.9231 77.3366 65.5856 90.0695 65.5856H90.1142Z" fill="#321E37"/>
<path d="M493.143 65.8984C513.381 65.8984 524.819 78.0505 528.482 91.3642H511.55C509.763 86.9412 505.429 79.7929 493.143 79.7929C480.857 79.7929 471.385 89.7559 471.385 108.52C471.385 127.284 480.633 137.247 493.143 137.247C505.652 137.247 514.186 129.831 514.811 117.59H491.535V103.516H530.225C533.665 136.399 513.65 151.186 493.143 151.186C472.636 151.186 455.704 135.996 455.704 108.565C455.704 81.1333 472.904 65.9431 493.143 65.9431V65.8984Z" fill="#321E37"/>
<path d="M175.402 81.6246H154.538V149.578H139.482V81.6246H118.751V67.4172H175.402V81.6246Z" fill="#321E37"/>
<path fill-rule="evenodd" clip-rule="evenodd" d="M235.85 149.578H219.632L214.807 133.718H186.795L181.97 149.578H166.199L194.077 67.4172H208.195L235.85 149.578ZM189.833 119.644H211.144L200.689 87.2538L189.877 119.644H189.833Z" fill="#321E37"/>
<path fill-rule="evenodd" clip-rule="evenodd" d="M270.876 67.4174C270.876 67.4174 298.531 67.1493 298.531 90.4259C298.531 100.434 293.394 106.286 287.541 109.637C294.019 112.854 298.531 120.136 298.531 127.597V149.578H283.341V130.054C283.341 123.174 277.801 117.589 270.876 117.545H256.803V149.533H241.881V67.3728H270.876V67.4174ZM256.803 103.427H270.876C270.876 103.427 283.341 103.427 283.341 92.4365C283.341 81.4459 270.876 81.446 270.876 81.446H256.803V103.382V103.427Z" fill="#321E37"/>
<path d="M380.379 149.578H365.323V67.4172H380.379V149.578Z" fill="#321E37"/>
<path d="M433.321 121.253V67.3728H447.305V149.533H433.902L404.638 93.062L404.727 149.533H390.654V67.3728H405.353L433.321 121.253Z" fill="#321E37"/>
<path d="M323.864 135.371H356.344V149.578H308.853V67.4172H323.909V135.371H323.864Z" fill="#321E37"/>
</g>
<defs>
<clipPath id="clip0_1_325">
<rect width="1091" height="688.542" rx="47.2742" fill="white"/>
</clipPath>
</defs>
</svg>
