<svg width="914" height="282" viewBox="0 0 914 282" fill="none" xmlns="http://www.w3.org/2000/svg">
<mask id="mask0_54_164" style="mask-type:luminance" maskUnits="userSpaceOnUse" x="0" y="0" width="914" height="282">
<g clip-path="url(#clip0_54_164)">
<path d="M113.122 89.1311C113.64 87.5581 115.099 83.211 115.005 81.791C114.637 76.8524 111.832 74.951 115.746 70.5873C118.069 67.9959 117.723 58.8921 118.679 55.3395C119.071 53.8803 120.005 51.0743 119.823 49.6753C120.249 47.9501 121.177 45.582 122.588 44.4497C126.118 37.6083 128.888 36.4282 135.361 41.3291C135.887 41.8684 137.496 43.4247 137.75 43.9778C144.28 50.3748 146.393 51.1128 142.083 60.2795C143.689 65.3791 138.041 84.8645 137.365 91.7443C135.714 108.544 132.182 152.033 157.88 151.341C159.668 151.125 162.04 148.705 162.666 147.149C165.851 139.238 175.713 132.478 179.052 125.226C188.06 105.655 197.063 85.8836 206.25 66.4142C208.759 67.2608 211.298 67.7204 212.546 69.953C212.654 71.2455 212.775 72.2168 212.617 73.5238C212.268 78.4406 208.596 82.9566 208.162 94.2233L205.172 98.9952L204.961 100.061C205.509 102.9 206.585 103.635 208.675 105.56L208.384 106.743C207.175 107.117 205.963 107.481 204.748 107.834C214.712 110.056 208.528 111.286 215.243 117.611C219.39 122.027 220.656 122.155 226.826 120.823C226.983 121.519 227.28 122.654 227.332 123.325C222.745 128.917 224.185 144.858 218.839 151.257C218.482 151.684 217.505 155.479 217.29 156.366C218.068 157.285 218.559 158.044 219.214 159.034C219.026 159.742 213.948 166.918 212.984 168.483C205.605 180.471 205.738 193.753 200.533 206.892C198.683 210.769 197.295 216.777 196.149 221.052C196.102 226.107 193.356 231.778 192.289 236.725C189.347 250.367 187.204 270.967 169.133 271.479C163.31 271.643 158.049 269.314 153.855 265.275C147.172 258.865 143.344 250.041 143.233 240.782C142.913 223.813 146.573 212.381 155.4 198.047C157.44 194.736 159.784 189.79 162.425 187.036C166.28 179.878 174.826 174.297 176.365 168.513L175.271 167.065C171.318 168.739 168.97 170.956 165.892 173.856C163.119 174.244 159.579 174.094 156.721 174.056C125.252 168.486 114.998 136.743 113.584 108.79C113.83 103.539 114.036 94.1936 113.122 89.1311Z" fill="white"/>
<path d="M113.122 89.1311C113.64 87.5581 115.099 83.211 115.005 81.7909C114.637 76.8524 111.832 74.951 115.746 70.5873C118.069 67.9958 117.723 58.8921 118.679 55.3395C119.071 53.8803 120.005 51.0743 119.823 49.6753C120.249 47.9501 121.177 45.5819 122.588 44.4497C126.118 37.6083 128.888 36.4282 135.361 41.3291C135.887 41.8684 137.496 43.4247 137.75 43.9778C144.28 50.3748 146.393 51.1127 142.083 60.2795C143.689 65.379 138.041 84.8644 137.365 91.7442C135.714 108.544 132.182 152.033 157.88 151.341C159.668 151.125 162.04 148.705 162.666 147.149C165.851 139.238 175.713 132.478 179.052 125.226C188.06 105.655 197.063 85.8836 206.249 66.4142C208.759 67.2608 211.298 67.7204 212.546 69.953C212.654 71.2455 212.775 72.2168 212.617 73.5237C212.268 78.4406 208.596 82.9566 208.162 94.2233L205.172 98.9952L204.961 100.061C205.509 102.9 206.585 103.635 208.675 105.56L208.384 106.743C207.175 107.117 205.963 107.481 204.748 107.834C202.854 111.547 202.168 118.683 200.288 123.714C197.155 127.444 191.381 150.279 189.263 155.843C187.59 160.236 183.506 164.57 181.629 168.759C181.029 170.098 181.061 174.572 180.112 177.505C179.633 176.138 179.54 173.736 179.115 171.997C175.115 170.27 167.136 185.494 162.425 187.036C166.28 179.878 174.826 174.297 176.365 168.513L175.271 167.065C171.318 168.739 168.97 170.956 165.892 173.856C163.119 174.244 159.579 174.094 156.721 174.056C125.252 168.486 114.998 136.743 113.584 108.79C113.83 103.539 114.036 94.1936 113.122 89.1311Z" fill="white"/>
<path d="M156.721 174.056L160.48 173.198C162.48 169.86 160.089 165.16 159.414 161.422C161.069 160.117 163.715 158.479 164.065 156.561L163.641 153.544C168.061 149.718 177.592 159.069 177.949 164.918C177.275 165.377 175.485 166.426 175.271 167.065C171.318 168.739 168.97 170.956 165.892 173.856C163.119 174.244 159.579 174.094 156.721 174.056Z" fill="white"/>
<path d="M142.083 60.2796L140.875 60.3347C138.777 58.1919 140.551 58.6638 139.381 57.2735C137.947 55.5686 133.726 52.9757 133.178 50.9402C134.194 49.6811 135.153 48.5902 136.236 47.3884C135.371 46.9194 134.749 46.5033 133.941 45.9647C135.341 44.2881 135.286 44.723 137.75 43.9778C144.28 50.3749 146.393 51.1128 142.083 60.2796Z" fill="white"/>
<path d="M122.588 44.4497C126.118 37.6083 128.888 36.4282 135.361 41.3291C131.017 45.5747 128.97 43.9126 122.588 44.4497Z" fill="white"/>
<path d="M123.233 97.6143C123.015 94.9881 122.499 92.3923 123.675 90.093C126.001 88.6498 125.504 89.0775 128.503 89.0659L128.246 89.8647L129.473 92.8244C129.387 95.0251 129.354 95.394 127.951 97.0439C125.832 98.0514 125.484 98.1449 123.233 97.6143Z" fill="white"/>
<path d="M200.288 123.714C202.168 118.683 202.854 111.547 204.748 107.834C214.712 110.056 208.528 111.286 215.243 117.612C213.822 128.569 208.503 132.934 200.288 123.714Z" fill="white"/>
<path d="M196.149 221.052C195.969 220.229 195.58 218.138 195.912 217.439C198.236 212.541 192.407 211.068 195.468 205.89C198.07 205.385 197.844 205.775 200.533 206.892C198.683 210.769 197.295 216.777 196.149 221.052Z" fill="white"/>
<path d="M166.399 233.916C165.849 234.211 164.62 234.63 163.981 234.87C159.56 233.321 159.317 229.493 160.413 225.543L161.509 225.345C162.886 223.393 166.038 219.563 166.679 217.526C168.412 212.017 166.959 198.11 175.827 198.21C178.17 200.762 172.462 208.219 172.43 211.97C172.374 218.664 172.268 223.344 171.486 230.042C170.598 230.934 167.558 233.061 166.399 233.916Z" fill="white"/>
<path d="M166.399 233.916C165.849 234.211 164.62 234.63 163.981 234.87C159.56 233.321 159.317 229.493 160.413 225.543L161.509 225.345C164.413 223.664 164.032 223.327 167.064 223.315C169.257 224.394 170.354 227.696 171.486 230.042C170.598 230.934 167.558 233.061 166.399 233.916Z" fill="white"/>
<path d="M157.504 229.732C152.94 226.55 151.959 225.559 149.281 220.708C152.838 222.71 156.755 225.648 160.413 225.543C159.317 229.493 159.56 233.321 163.981 234.87C164.62 234.63 165.849 234.211 166.399 233.916C166.207 235.594 166.015 237.882 165.675 239.485L164.738 237.395C163.337 236.827 162.505 236.644 161.048 236.304C156.826 241.151 164.176 243.596 165.33 245.538L164.374 246.553L163.014 245.85C152.966 243.048 149.586 243.155 157.207 233.721C157.207 233.721 157.475 230.125 157.504 229.732Z" fill="white"/>
<path d="M163.014 245.85C152.966 243.048 149.586 243.155 157.207 233.721C157.207 233.721 157.475 230.125 157.504 229.732C159.647 232.139 159.436 231.274 160.066 234.126L159.954 234.384C156.828 241.689 160.349 241.229 163.014 245.85Z" fill="white"/>
<path d="M519.323 141.219C515.792 140.116 514.573 138.108 513.101 134.859C511.455 131.237 506.257 125.018 508.011 120.968C512.028 111.701 526.117 111.669 534.419 109.264C536.595 108.629 539.306 105.97 541.293 105.427C543.679 104.364 544.926 103.65 547.594 103.598C548.936 102.196 548.914 102.647 549.11 101.02L546.695 99.8426C541.206 92.3836 536.087 91.8668 531.7 81.5866C532.099 79.0814 532.918 76.2312 531.686 74.1457C529.742 72.3016 525.595 71.8769 522.803 71.3426C523.775 68.296 525.501 65.0797 525.334 62.0649C527.567 48.7932 534.97 41.6038 545.223 33.931C553.105 28.0327 584.147 10.8647 592.34 8.64443C597.075 8.5357 603.166 7.69629 606.124 12.0629C609.329 15.5916 610.221 17.1806 612.425 21.4588C614.318 32.3015 592.5 37.0661 585.589 43.2515L581.021 47.0455C578.077 48.4148 572.929 50.2234 569.753 51.4571C567.752 52.9373 564.511 54.1732 562.104 56.0129C558.319 58.9016 550.988 68.5663 547.029 69.7153C548.203 70.7076 548.348 70.9577 548.95 72.3734L549.103 72.7337C555.099 81.235 557.064 80.6587 566.425 84.2345C572.32 86.4889 576.954 87.6045 582.863 89.2703C582.464 92.878 585.575 95.1585 588.961 95.4948C591.028 94.804 591.281 94.2023 592.5 92.3336L592.289 91.6522C595.995 92.343 594.914 91.6834 597.699 94.1407C598.315 96.1276 598.373 95.36 597.546 97.1961C594.972 97.7673 593.58 97.7158 590.984 97.7383C591.659 98.661 595.777 98.7089 595.864 98.9394C596.836 101.428 599.091 113.973 600.751 115.389C598.576 117.1 597.546 117.633 595.146 118.887C580.739 128.311 581.768 124.854 569.833 130.65C569.442 130.999 565.99 132.939 565.301 133.338C562.568 133.455 554.273 136.78 551.191 137.722C540.561 140.967 530.431 146.042 519.323 141.219Z" fill="white"/>
<path d="M519.323 141.219C515.792 140.116 514.573 138.108 513.101 134.859C511.455 131.237 506.257 125.018 508.011 120.968C512.028 111.701 526.117 111.669 534.419 109.264C536.595 108.629 539.306 105.97 541.293 105.427L543.128 106.357C555.099 106.162 556.528 105.454 566.679 98.9553C571.037 99.586 574.851 99.9223 578.795 97.2048C580.245 96.2044 579.607 91.4087 581.304 91.5688C582.508 96.5045 587.634 99.0742 591.608 95.7702C592.231 94.3386 592.5 93.9138 592.5 92.3336L592.289 91.6522C595.995 92.343 594.914 91.6834 597.699 94.1407C598.315 96.1276 598.373 95.36 597.546 97.1961C594.972 97.7673 593.58 97.7158 590.984 97.7383C591.659 98.661 595.777 98.7089 595.864 98.9394C596.836 101.428 599.091 113.973 600.751 115.389C598.576 117.1 597.546 117.633 595.146 118.887C580.739 128.311 581.768 124.854 569.833 130.65C569.442 130.999 565.99 132.939 565.301 133.338C562.568 133.455 554.273 136.78 551.191 137.722C540.561 140.967 530.431 146.042 519.323 141.219Z" fill="white"/>
<path d="M519.323 141.219C515.792 140.116 514.573 138.108 513.101 134.859C511.455 131.237 506.257 125.018 508.011 120.968C512.028 111.701 526.117 111.669 534.419 109.264C536.595 108.629 539.306 105.97 541.293 105.427L543.128 106.357C536.392 114.946 528.648 110.695 520.599 116.623C519.707 117.28 516.183 118.561 514.987 119.032C514.385 122.217 513.428 126.374 513.587 129.52C515.799 129.302 514.769 128.361 516.763 128.107L514.755 131.349C517.409 133.012 521.411 135.235 522.644 138.009L522.274 138.954C520.084 137.148 517.749 135.053 515.277 133.719L515.182 134.803C516.299 137.925 516.966 138.37 519.635 140.332L519.323 141.219Z" fill="white"/>
<path d="M569.833 130.65C569.434 128.633 568.651 126.169 569.449 124.377C573.125 123.452 574.024 124.917 577.468 122.338C584.313 117.206 587.04 117.297 595.146 118.887C580.739 128.311 581.768 124.854 569.833 130.65Z" fill="white"/>
<path d="M526.11 125.06C526.704 122.048 526.653 120.944 529.728 120.478C531.845 121.296 532.338 122.296 533.607 124.142C533.498 125.223 533.303 126.408 533.143 127.493C531.077 129.085 531.968 128.821 529.496 128.879C526.711 127.233 527.589 128.132 526.11 125.06Z" fill="white"/>
<path d="M610.808 23.6494C606.073 24.3684 606.066 23.6146 600.577 25.5275C596.763 24.3786 592.92 12.3942 592.34 8.64442C597.075 8.53569 603.166 7.69628 606.124 12.0629C609.329 15.5916 610.221 17.1806 612.425 21.4588L610.808 23.6494Z" fill="white"/>
<path d="M610.808 23.6494C606.951 22.4664 602.709 16.4839 606.124 12.0629C609.329 15.5916 610.221 17.1806 612.425 21.4588L610.808 23.6494Z" fill="white"/>
<path d="M549.103 72.7336C546.434 72.3299 544.897 70.0154 544.157 67.6095C547.167 65.8546 546.891 67.0361 548.87 64.3852C548.414 62.4491 548.203 61.7344 548.261 59.7591C552.938 56.1833 557.702 60.2556 558.594 54.6821C559.044 51.884 557.789 49.9283 559.268 47.6319C564.018 46.346 565.033 51.7862 570.565 47.8457L571.196 47.8885C570.428 49.2658 570.225 49.9725 569.753 51.4571C567.752 52.9373 564.511 54.1732 562.104 56.0129C558.319 58.9016 550.988 68.5663 547.029 69.7153C548.203 70.7076 548.348 70.9577 548.95 72.3734L549.103 72.7336Z" fill="white"/>
<path d="M569.753 51.4571C570.225 49.9725 570.428 49.2658 571.196 47.8885C574.329 47.4224 574.097 47.9683 575.982 45.9002C576.627 42.2396 572.117 39.2814 573.161 36.3826L575.162 36.21C576.286 37.1894 577.055 37.8084 577.983 38.9907C579.883 40.2462 584.835 42.6295 585.589 43.2515L581.021 47.0455C578.077 48.4148 572.929 50.2234 569.753 51.4571Z" fill="white"/>
<path d="M581.021 47.0455C578.65 44.1199 578.418 42.5324 577.983 38.9906C579.883 40.2461 584.835 42.6295 585.589 43.2515L581.021 47.0455Z" fill="white"/>
<path d="M547.594 103.598C548.936 102.196 548.914 102.647 549.11 101.02L546.695 99.8426C546.847 97.7405 546.717 95.6057 548.16 94.1364C551.597 95.057 551.713 99.7614 550.952 102.696L549.69 103.813C549.211 103.777 547.979 103.714 547.594 103.598Z" fill="white"/>
<path d="M592.5 92.3336C591.282 94.2023 591.028 94.804 588.961 95.4948C585.575 95.1584 582.464 92.878 582.863 89.2702C587.112 89.5355 599.149 87.2014 602.47 84.5151C600.033 85.9148 622.026 78.2043 621.322 78.4283C671.434 62.4919 724.409 54.1369 776.863 51.3055C785.608 50.8337 807.013 46.9867 813.828 51.5629C816.388 50.493 819.731 48.8178 822.392 48.904L825.184 50.1269C826.046 50.3973 827.656 50.9591 828.49 51.054C829.164 54.0072 830.977 56.2637 830.905 59.7214C829.375 62.3143 829.527 61.6524 826.228 62.955L826.634 63.5625C822.058 65.0188 823.015 64.1228 819.963 67.3152L820.014 68.4735C790.103 68.2343 778.893 70.3901 750.034 74.2805C743.48 75.7013 734.017 78.0695 727.578 78.2195C719 80.9762 706.985 79.7048 695.688 84.6419C690.729 86.3069 687.596 87.3776 682.412 88.3663C672.26 92.3763 663.617 89.2028 652.596 97.5715C646.157 99.2083 639.979 100.998 633.903 103.701C632.424 104.409 629.632 105.195 627.979 105.718C621.569 109.303 608.365 112.607 600.751 115.389C599.091 113.973 596.836 101.428 595.864 98.9394C595.777 98.7088 591.659 98.661 590.984 97.7382C593.58 97.7158 594.972 97.7672 597.546 97.196C598.373 95.3599 598.315 96.1276 597.699 94.1407C594.914 91.6834 595.995 92.343 592.289 91.6522L592.5 92.3336Z" fill="white"/>
<path d="M819.963 67.3152C819.818 62.4527 819.129 53.4461 813.828 51.5629C816.388 50.493 819.731 48.8178 822.392 48.904L825.183 50.1269C826.046 50.3973 827.656 50.9591 828.49 51.054C829.164 54.0072 830.977 56.2637 830.904 59.7214C829.374 62.3143 829.527 61.6524 826.228 62.955L826.634 63.5625C822.058 65.0188 823.015 64.1228 819.963 67.3152Z" fill="white"/>
<path d="M826.228 62.9551C825.154 61.2661 822.008 55.3446 822.327 53.536C822.486 52.6031 824.364 50.9678 825.183 50.1269C826.046 50.3973 827.656 50.9591 828.49 51.0541C829.164 54.0072 830.977 56.2637 830.905 59.7214C829.375 62.3143 829.527 61.6525 826.228 62.9551Z" fill="white"/>
<path d="M602.912 86.6766C603.514 85.9887 603.463 86.1888 604.551 85.9271L605.82 87.7567C608.851 85.258 608.582 84.768 611.874 84.5948L612.592 85.49C611.744 97.6223 608.445 87.0354 605.493 98.1355C605.203 99.2279 604.282 100.274 603.434 101.036L602.281 100.87C599.91 98.2239 600.867 95.1323 601.447 91.9878C601.882 90.4467 602.6 88.1771 602.912 86.6766Z" fill="white"/>
<path d="M743.117 74.3066C741.021 73.0801 739.47 72.4459 738.52 70.1908C739.426 64.5433 751.202 65.0761 754.428 67.7835C755.327 70.7765 752.565 72.5894 749.991 73.6767C747.373 73.6209 745.684 73.9246 743.117 74.3066Z" fill="white"/>
<path d="M633.903 103.701C632.648 101.538 632.206 101.642 632.496 99.5469C640.363 98.2986 636.332 96.5285 639.21 93.6123C648.492 95.3875 647.687 90.9571 652.596 97.5716C646.157 99.2083 639.979 100.998 633.903 103.701Z" fill="white"/>
<path d="M592.5 92.3335C591.282 94.2023 591.028 94.8039 588.961 95.4948C585.575 95.1584 582.464 92.8779 582.863 89.2702C587.112 89.5355 599.149 87.2014 602.47 84.515L602.912 86.6766C602.6 88.1771 601.882 90.4467 601.447 91.9878C601.266 90.0176 601.549 89.0071 600.396 87.8038C597.865 87.9553 595.357 88.2279 592.833 88.4801C595.828 89.4812 599.033 89.6196 599.214 92.8562L597.097 91.1085C593.885 90.5938 595.037 90.3851 592.289 91.6522L592.5 92.3335Z" fill="white"/>
<path d="M682.412 88.3663C682.774 87.1587 683.195 86.2236 682.992 85.0007C684.638 82.0019 683.731 82.8805 686.516 81.206C688.706 81.0038 689.068 81.0661 691.185 81.6989L693.346 82.6304L695.688 84.6419C690.729 86.307 687.596 87.3776 682.412 88.3663Z" fill="white"/>
<path d="M727.578 78.2195L726.005 77.3809L725.758 76.1493C729.753 72.5662 739.6 75.0344 743.117 74.3067C745.684 73.9246 747.373 73.6209 749.991 73.6767L750.034 74.2805C743.479 75.7013 734.017 78.0695 727.578 78.2195Z" fill="white"/>
<path d="M627.979 105.718L627.739 105.096C628.943 104.198 629.458 103.918 630.785 103.236L631.126 101.408C630.451 99.3569 628.755 98.2051 627.101 96.8025C629.407 96.8445 632.38 97.1627 634.352 96.1515L634.744 95.1896C637.746 94.0189 636.839 94.5488 638.594 91.2811L639.211 93.6123C636.332 96.5285 640.363 98.2986 632.496 99.5469C632.206 101.642 632.648 101.538 633.903 103.701C632.424 104.409 629.632 105.195 627.979 105.718Z" fill="white"/>
<path d="M627.101 96.8024C627.094 94.0189 626.623 93.2389 627.986 91.1788C630.625 91.3224 632.365 93.871 634.744 95.1896L634.352 96.1515C632.38 97.1627 629.407 96.8445 627.101 96.8024Z" fill="white"/>
<path d="M691.185 81.6989C691.461 78.5885 690.975 78.4355 692.766 76.2957L693.963 76.5356C694.796 78.7356 694.978 79.048 693.767 81.7446C693.636 82.0432 693.491 82.3382 693.346 82.6304L691.185 81.6989Z" fill="white"/>
<path d="M340.399 106.577C341.255 105.389 344.316 101.421 344.51 100.285C345.639 98.9009 347.011 96.7887 348.638 96.3878C357.118 89.6762 356.999 86.212 362.788 78.653C364.181 76.374 364.552 76.0521 366.927 74.8264L371.468 70.0356C375.368 64.6853 379.775 61.5836 382.677 57.7258L383.337 56.2057L384.156 53.9557C387.255 49.4977 396.072 43.7364 400.629 40.6412C405.382 35.9288 409.885 30.5444 416.07 28.1755C419.091 26.1574 422.46 24.8657 426.171 25.5783L425.501 23.7994C429.127 16.447 444.955 25.0766 444.341 39.0472C440.389 55.2634 416.204 76.7436 404.401 88.1474C401.375 91.0723 381.933 111.958 380.943 114.521L382.45 115.43L379.764 115.393C369.895 120.34 376.135 130.945 370.6 136.491C368.269 137.699 367.152 137.375 364.593 137.038C361.917 138.289 364.219 139.086 362.603 141.626L363.08 141.585L362.884 142.004L361.629 138.891C363.405 135.968 365.569 131.323 365.798 127.866C366.071 123.711 359.236 121.498 355.82 121.641C355.173 120.781 355.222 120.629 355.102 119.519C354.362 117.819 351.692 113.54 350.656 111.82L349.173 111.582C350.076 110.211 350.69 109.285 351.413 107.809C349.22 107.975 347.282 110.635 345.443 112.503C343.974 111.575 343.281 108.422 342.532 106.393L340.399 106.577Z" fill="white"/>
<path d="M383.337 56.2058L384.156 53.9557C387.255 49.4977 396.072 43.7364 400.629 40.6412C405.382 35.9288 409.885 30.5444 416.07 28.1755C419.091 26.1574 422.46 24.8657 426.171 25.5783L428.518 25.7754L428.418 26.1669L421.601 27.3412C420.702 29.6419 419.775 31.9318 418.818 34.2086C413.348 39.0052 417.022 38.7449 413.715 43.5371C410.283 48.5068 400.781 53.7354 399.736 60.0324C400.946 61.9388 401.721 61.5742 404.414 62.207L404.749 63.232L403.412 65.0637C400.938 66.3062 397.682 65.3878 394.454 65.2065C391.444 66.586 389.643 67.9553 386.562 66.2497C384.91 63.6176 385.874 59.754 386.518 56.861L385.885 56.3681L384.331 56.9604L383.337 56.2058Z" fill="white"/>
<path d="M384.156 53.9557C387.255 49.4977 396.072 43.7364 400.629 40.6412C405.23 42.6448 403.033 40.971 405.873 41.2965L404.852 42.4229C404.595 43.7545 404.546 44.591 403.676 45.6639C401.001 45.0883 399.938 45.1521 397.578 46.4467C396.427 50.1248 400.604 52.0565 398.213 55.6461C396.179 58.7008 392.337 67.2246 387.882 65.0956C387.021 61.9975 387.772 59.7468 388.342 56.5233C386.848 54.3457 386.986 54.8807 384.156 53.9557Z" fill="white"/>
<path d="M394.454 65.2065C395.93 62.9348 395.309 62.0178 395.918 59.8823C396.636 57.3699 401.237 54.8234 403.325 52.8242L401.573 51.6202C404.367 49.5086 403.762 52.1871 405.679 49.2962L405.425 43.7009C407.346 41.8619 411.882 42.7977 412.837 41.2878C415.991 36.3014 416.657 31.5926 421.601 27.3412C420.702 29.6419 419.775 31.9318 418.818 34.2086C413.348 39.0052 417.022 38.7449 413.714 43.5371C410.283 48.5068 400.781 53.7354 399.736 60.0324C400.946 61.9388 401.721 61.5742 404.414 62.207L404.749 63.232L403.412 65.0637C400.938 66.3062 397.682 65.3878 394.454 65.2065Z" fill="white"/>
<path d="M400.629 40.6412C405.382 35.9288 409.885 30.5444 416.07 28.1755L415.854 29.5869C410.356 34.15 414.109 39.9026 405.873 41.2965C403.033 40.971 405.23 42.6448 400.629 40.6412Z" fill="white"/>
<path d="M340.399 106.577C341.255 105.389 344.316 101.421 344.51 100.285C345.639 98.9009 347.011 96.7887 348.638 96.3878C357.118 89.6762 356.999 86.212 362.788 78.653C364.181 76.374 364.552 76.0521 366.927 74.8264L371.468 70.0356C375.368 64.6853 379.775 61.5836 382.677 57.7258C382.557 63.9735 383.442 68.3858 383.634 74.3015C382.29 78.239 381.217 80.8675 379.484 84.6557C378.578 90.2691 370.926 90.7352 367.275 92.1654C365.983 92.3321 364.783 96.8669 364.347 97.0605C362.762 97.765 362.114 97.8557 360.583 99.4605C357.63 99.3279 355.058 97.7303 351.637 97.104C347.865 97.9397 344.758 103.208 342.532 106.393L340.399 106.577Z" fill="white"/>
<path d="M366.927 74.8264L371.468 70.0357C375.368 64.6854 379.775 61.5836 382.677 57.7258C382.557 63.9736 383.442 68.3859 383.634 74.3016L382.121 74.3712C379.613 74.6452 377.971 76.1674 375.425 77.4794L374.251 76.2812C371.605 76.0957 369.214 76.1595 366.927 74.8264Z" fill="white"/>
<path d="M366.927 74.8264L371.468 70.0357C374.025 71.2201 374.713 71.0389 376.092 73.1686C375.671 74.88 375.524 75.0511 374.251 76.2812C371.605 76.0956 369.214 76.1594 366.927 74.8264Z" fill="white"/>
<path d="M348.638 96.3878C357.118 89.6762 357 86.212 362.788 78.653C367.868 82.0643 363.54 91.9675 361.995 96.7611C357.682 97.2403 355.367 95.1722 351.743 95.9877C350.582 96.2487 349.809 96.2806 348.638 96.3878Z" fill="white"/>
<path d="M379.484 84.6557C377.427 82.5253 377.129 82.8855 376.702 80.2521C378.202 77.1402 380.562 76.5494 382.121 74.3711L383.635 74.3015C382.29 78.2391 381.217 80.8675 379.484 84.6557Z" fill="white"/>
<path d="M418.818 34.2086C419.775 31.9318 420.702 29.6419 421.601 27.3412L428.418 26.1669L428.518 25.7754L426.171 25.5783L425.501 23.7994C429.127 16.447 444.955 25.0767 444.341 39.0472C439.777 42.394 437.464 40.1062 433.341 37.3742L431.089 35.5845C429.804 31.4969 430.213 30.5306 427.356 27.8848C421.416 28.1697 422.137 30.245 419.056 35.0104L418.818 34.2086Z" fill="white"/>
<path d="M417.549 40.9275C417.877 42.0475 418.197 43.1203 418.459 44.2612L417.317 44.18C415.919 40.6368 416.159 37.7257 419.056 35.0104C422.137 30.245 421.416 28.1697 427.356 27.8848C430.213 30.5306 429.804 31.4969 431.088 35.5845L433.341 37.3742C431.241 39.5677 429.458 41.7445 426.552 42.4998C423.639 41.9569 424.657 42.4701 422.487 40.3208L421.906 40.1077C420.82 41.7445 419.098 41.1849 417.549 40.9275Z" fill="white"/>
<path d="M431.088 35.5844C428.763 36.5355 427.231 37.2169 425.286 35.433C424.895 32.8017 426.279 30.3842 427.356 27.8848C430.213 30.5306 429.804 31.4969 431.088 35.5844Z" fill="white"/>
<path d="M417.549 40.9276C418.423 37.6105 417.769 38.6145 419.923 36.3304L421.488 36.2144C422.896 38.1868 422.505 37.4771 422.487 40.3208L421.906 40.1077C420.82 41.7445 419.098 41.1849 417.549 40.9276Z" fill="white"/>
<path d="M365.539 101.99C365.765 98.5422 366.799 96.3922 370.275 95.7949C372.321 96.8249 372.667 97.0793 373.672 99.1286C372.435 100.833 370.014 101.61 368.022 102.478L368.267 102.78L367.766 103.424L365.539 101.99Z" fill="white"/>
<path d="M320.765 162.046C320.356 161.504 319.959 160.953 319.576 160.393C317.163 156.89 310.864 145.07 310.587 140.881C308.621 111.177 318.303 81.0139 322.856 51.8695C323.454 48.0422 324.359 47.3072 327.365 45.2529L327.081 44.072L322.907 42.9441C327.246 40.3462 327.862 40.3382 329.95 35.7707C331.156 30.0167 338.542 16.431 337.464 14.4688C345.22 5.80724 343.296 7.25628 353.12 9.37147C355.221 10.3022 358.477 11.6229 360.319 12.7987C363.148 16.3194 362.729 20.7839 362.794 25.2506C358.356 37.7547 355.241 39.6749 351.313 55.4591C345.614 67.661 344.457 76.2747 341.525 89.3739C339.556 96.2689 337.987 101.184 337.292 108.296L340.399 106.577L342.532 106.393C343.281 108.422 343.974 111.575 345.443 112.503C347.282 110.635 349.22 107.975 351.413 107.809C350.69 109.285 350.076 110.211 349.173 111.582L350.656 111.82C351.693 113.54 354.362 117.819 355.102 119.519C353.879 119.745 351.582 119.819 350.251 119.902L348.106 119.601L347.149 120.365C348.6 128.065 346.667 122.889 343.201 125.808C344.344 131.52 346.011 130.334 346.193 137.137C346.449 141.769 335.283 156.316 331.918 159.83C328.959 160.655 323.928 161.45 320.765 162.046Z" fill="white"/>
<path d="M322.907 42.9442C327.246 40.3462 327.862 40.3382 329.95 35.7708C331.156 30.0167 338.542 16.4311 337.464 14.4688C345.22 5.80727 343.296 7.25631 353.12 9.3715C355.221 10.3022 358.477 11.623 360.319 12.7987C363.148 16.3194 362.729 20.7839 362.794 25.2506C358.356 37.7547 355.241 39.6749 351.313 55.4591L347.586 54.7886L346.579 53.7731C343.579 52.9902 340.686 53.9347 339.192 56.7683L341.642 60.3448C342.428 62.2875 342.904 63.0297 342.341 64.997C338.77 68.4968 327.265 65.0623 325.494 60.4224C327.229 57.8853 328.916 59.6091 331.162 57.172C330.448 54.9394 328.58 54.5371 326.043 53.0395C325.598 51.4615 327.153 48.8193 327.365 45.2529L327.081 44.0721L322.907 42.9442Z" fill="white"/>
<path d="M329.95 35.7708C331.156 30.0167 338.542 16.4311 337.464 14.4688C345.22 5.80726 343.296 7.2563 353.12 9.37149C355.221 10.3022 358.476 11.623 360.319 12.7987C363.148 16.3194 362.729 20.7839 362.794 25.2506C361.167 25.2905 359.289 25.1448 357.641 25.0571L355.497 27.2759C349.548 28.4879 347.795 20.1765 342.747 18.5165C336.597 16.4941 334.893 33.2931 329.95 35.7708Z" fill="white"/>
<path d="M357.641 25.0571C355.343 26.0581 354.684 26.4525 352.224 25.8378C349.181 22.7019 351.334 19.6538 351.033 14.2332C351.603 12.7146 352.269 10.7016 353.12 9.37147C355.221 10.3022 358.477 11.6229 360.319 12.7987C363.148 16.3194 362.729 20.7839 362.794 25.2506C361.167 25.2905 359.289 25.1448 357.641 25.0571Z" fill="white"/>
<path d="M351.033 14.2332C351.603 12.7146 352.269 10.7016 353.12 9.37148C355.221 10.3022 358.477 11.6229 360.319 12.7987C359.375 13.8831 358.365 14.4768 357.177 15.2763C354.686 15.87 353.39 15.1422 351.033 14.2332Z" fill="white"/>
<path d="M339.192 56.7682C337.47 52.5002 337.106 51.3092 336.421 46.7671C341.507 47.7109 345.315 47.7638 346.579 53.7731C343.579 52.9902 340.686 53.9347 339.192 56.7682Z" fill="white"/>
<path d="M349.173 111.582C345.451 114.04 347.074 113.492 345.064 116.219C342.738 119.376 340.954 114.315 336.887 114.281C335.846 115.888 336.629 121.379 335.888 124.666C334.854 123.006 335.954 114.397 336.364 112.163C337.014 108.629 337.614 111.285 340.051 109.441L337.292 108.296L340.399 106.577L342.532 106.393C343.281 108.422 343.974 111.575 345.443 112.503C347.282 110.635 349.22 107.975 351.413 107.809C350.69 109.285 350.076 110.211 349.173 111.582Z" fill="white"/>
<path d="M339.192 56.7683C340.685 53.9347 343.579 52.9902 346.579 53.7731L347.585 54.7886C347.847 55.0481 348.513 56.1449 348.755 56.524L348.139 58.0651C345.676 59.7243 344.504 59.8214 341.642 60.3448L339.192 56.7683Z" fill="white"/>
<path d="M346.193 137.137C346.011 130.334 344.344 131.52 343.201 125.808C346.667 122.889 348.6 128.065 347.149 120.365L348.106 119.601L350.251 119.902C351.582 119.819 353.879 119.745 355.102 119.519C355.222 120.629 355.173 120.781 355.821 121.641C359.236 121.498 366.071 123.711 365.798 127.866C365.569 131.323 363.405 135.968 361.629 138.891L362.884 142.004L363.08 141.585L362.603 141.626C364.219 139.086 361.917 138.289 364.593 137.038C367.152 137.375 368.269 137.699 370.6 136.491C376.136 130.945 369.895 120.34 379.764 115.393L382.45 115.43C391.656 119.231 392.332 116.368 401.172 115.287C414.055 113.712 424.762 106.239 436.304 102.874C457.095 96.8133 475.933 90.0546 495.206 79.9215C498.302 78.2906 507.061 75.6368 509.041 73.6195L508.562 71.621C511.187 67.7269 520.94 65.2457 525.334 62.0649C525.501 65.0797 523.775 68.296 522.803 71.3426C525.595 71.8769 529.742 72.3016 531.686 74.1457C532.918 76.2312 532.099 79.0814 531.7 81.5866L530.12 77.9825C527.77 77.3294 519.801 83.5698 517.749 85.4625C500.267 101.584 480.269 107.544 459.901 118.135C452.172 122.267 425.821 133.327 417.283 134.095C409.684 135.965 404.124 137.396 396.28 137.436C392.782 141.757 365.46 146.687 359.787 144.47C358.865 144.11 350.997 133.29 348.922 131.237C347.388 132.226 346.786 135.244 346.193 137.137Z" fill="white"/>
<path d="M417.283 134.095L416.096 133.235C417.349 128.856 423.028 129.311 425.023 127.37C428.952 123.547 429.258 122.317 434.346 119.68C440.758 120.657 456.827 116.236 459.901 118.135C452.172 122.267 425.821 133.327 417.283 134.095Z" fill="white"/>
<path d="M346.193 137.137C346.011 130.334 344.344 131.52 343.201 125.808C346.667 122.889 348.6 128.065 347.149 120.365L348.106 119.601L350.251 119.902L348.911 120.91C348.36 126.422 357.535 141.404 362.515 144.69C368.442 143.513 391.368 139.551 395.124 137.339L396.28 137.436C392.782 141.757 365.46 146.687 359.787 144.47C358.865 144.11 350.997 133.29 348.922 131.237C347.388 132.226 346.786 135.244 346.193 137.137Z" fill="white"/>
<path d="M449.611 110.624C449.995 107.844 449.563 107.785 451.243 105.897C453.353 105.305 456.66 107.233 458.857 108.239L458.719 110.103C455.891 113.868 453.288 113.148 449.611 110.624Z" fill="white"/>
<path d="M219.214 159.034C218.559 158.044 218.068 157.285 217.29 156.366C217.505 155.479 218.482 151.684 218.839 151.257C224.185 144.858 222.745 128.917 227.332 123.325C228.247 122.451 229.16 121.714 229.647 120.541L227.264 118.467C226.721 118.103 225.583 116.328 225.14 115.691L231.241 114.632L231.659 114.449C245.504 107.726 242.082 100.327 251.933 95.3991C253.737 94.2791 260.525 90.1829 261.648 89.0608C266.106 84.6107 270.585 75.1315 275.237 70.9613C287.648 59.8345 298.653 47.8494 310.495 36.2267C315.952 30.8713 320.043 30.1711 325.394 23.5776L328.845 21.532C331.148 19.6169 335.152 16.0758 337.464 14.4688C338.542 16.431 331.156 30.0167 329.95 35.7707C327.862 40.3382 327.246 40.3462 322.907 42.9441C319.506 46.9462 317.321 52.1211 315.025 56.8958C313.369 60.3709 310.983 66.3402 307.986 68.4793C307.341 69.4021 299.596 76.2921 298.421 77.0648C291.804 81.4126 287.71 89.6015 282.493 94.1755C270.656 103.4 269.458 106.742 259.622 117.895C255.467 122.117 252.337 126.231 248.386 130.391C242.378 136.717 235.554 142.943 229.149 148.916C224.41 153.191 223.023 153.66 219.214 159.034Z" fill="white"/>
<path d="M219.214 159.034C218.559 158.044 218.068 157.285 217.29 156.366C217.505 155.479 218.482 151.684 218.839 151.257C224.185 144.858 222.745 128.917 227.332 123.325C228.247 122.451 229.16 121.714 229.647 120.541L227.264 118.467C226.721 118.103 225.583 116.328 225.14 115.691L231.241 114.632L228.05 116.675C227.992 116.269 231.527 123.453 231.841 124.212C244.5 130.648 243.842 107.064 254.7 112.187C258.818 114.131 256.955 115.759 259.622 117.895C255.467 122.117 252.337 126.231 248.386 130.391C242.378 136.717 235.554 142.943 229.149 148.916C224.41 153.191 223.023 153.66 219.214 159.034Z" fill="white"/>
<path d="M219.214 159.034C218.559 158.044 218.068 157.285 217.29 156.366C217.505 155.479 218.482 151.684 218.839 151.257C224.185 144.858 222.745 128.917 227.332 123.325C228.247 122.451 229.16 121.714 229.647 120.541C232.156 129.133 236.287 126.387 237.218 129.995C233.478 132.184 226.625 134.15 226.212 137.625C225.905 140.209 226.251 144.982 227.167 147.397L229.149 148.916C224.41 153.191 223.023 153.66 219.214 159.034Z" fill="white"/>
<path d="M259.622 117.895C256.955 115.759 258.818 114.131 254.701 112.187C243.842 107.064 244.5 130.648 231.841 124.212C231.527 123.453 227.992 116.269 228.05 116.675L231.241 114.632L231.659 114.449C245.504 107.726 242.082 100.327 251.933 95.3991L252.11 95.7825C253.976 99.8991 255.27 106.851 261.732 107.829L262.932 106.677C263.01 102.524 261.731 102.301 258.428 100.032C263.482 96.5973 278.091 86.9862 282.493 94.1755C270.656 103.4 269.458 106.742 259.622 117.895Z" fill="white"/>
<path d="M307.986 68.4794L307.211 67.5443C309.532 63.9525 305.771 59.2676 310.673 56.4964C312.097 56.4682 313.807 56.2775 315.025 56.8958C313.369 60.3709 310.983 66.3403 307.986 68.4794Z" fill="white"/>
<path d="M328.845 21.532C331.548 22.8658 331.527 23.5906 331.479 26.3285C330.043 28.3422 330.814 27.8747 328.5 28.2697C326.285 26.7554 326.58 26.2807 325.394 23.5776L328.845 21.532Z" fill="white"/>
<path d="M3.65942 160.846C4.0662 156.663 3.97701 151.899 7.65326 149.248C20.006 140.296 33.1158 132.513 45.2873 123.229C47.8382 121.284 57.9953 116.574 59.3259 115.016C65.9054 107.315 79.8817 97.4563 85.9718 90.8381C94.6657 81.3916 114.423 60.1838 119.823 49.6753C120.005 51.0743 119.071 53.8803 118.679 55.3395C117.723 58.8921 118.069 67.9958 115.746 70.5873C111.832 74.951 114.637 76.8524 115.005 81.7909C115.099 83.211 113.64 87.5581 113.122 89.131L112.082 89.9335C111.542 91.165 109.32 94.7945 108.53 96.1449L103.195 102.623C99.6682 106.032 93.0778 115.734 89.0752 117.652C80.9744 121.534 66.3724 135.797 59.4484 138.868C52.7268 144.952 41.9265 150.616 35.0728 156.653C26.8524 163.513 24.403 164.305 14.4133 168.285C9.8213 165.549 7.85484 164.244 3.65942 160.846Z" fill="white"/>
<path d="M35.0728 156.653C33.3144 155.568 31.3067 154.597 30.3474 152.813C32.0622 148.206 42.595 149.773 44.9131 148.08C50.2629 144.175 52.4077 141.606 58.6784 138.523L59.4484 138.868C52.7268 144.952 41.9264 150.616 35.0728 156.653Z" fill="white"/>
<path d="M103.195 102.623C100.147 101.433 100.938 102.218 99.5854 99.7034C99.8023 94.5706 107.372 88.1061 112.082 89.9335C111.542 91.1651 109.32 94.7946 108.53 96.145L103.195 102.623Z" fill="white"/>
<path d="M204.748 107.834C205.963 107.481 207.175 107.117 208.384 106.743L208.675 105.56C206.585 103.635 205.509 102.9 204.961 100.061L205.172 98.9952L208.162 94.2233C208.596 82.9566 212.268 78.4406 212.617 73.5238C212.775 72.2168 212.654 71.2455 212.546 69.953C211.298 67.7204 208.759 67.2608 206.249 66.4142C208.85 63.2878 214.07 54.5516 215.457 53.1548C216.752 50.4314 218.464 46.5308 219.886 43.9872C238.373 46.2452 240.17 52.9177 237.904 71.0338C237.87 71.3071 237.828 71.5797 237.78 71.8508C237.487 78.9596 228.936 108.618 231.659 114.449L231.241 114.632L225.14 115.691C225.583 116.328 226.721 118.103 227.264 118.467L229.647 120.541C229.16 121.714 228.247 122.451 227.332 123.325C227.279 122.654 226.983 121.519 226.826 120.823C220.656 122.155 219.39 122.027 215.243 117.611C208.528 111.286 214.712 110.056 204.748 107.834Z" fill="white"/>
<path d="M206.25 66.4142C208.85 63.2878 214.07 54.5516 215.458 53.1547C216.753 50.4314 218.464 46.5308 219.886 43.9872C238.373 46.2452 240.17 52.9177 237.904 71.0338C237.87 71.3071 237.828 71.5797 237.78 71.8508C234.783 69.2731 235.511 70.5134 234.987 66.3903C232.68 63.5132 231.17 65.8495 229.881 64.6274C227.863 62.7122 230.473 61.1364 225.543 59.1589C217.167 61.1088 211.905 91.0476 208.307 94.1052C208.259 94.145 208.21 94.1842 208.162 94.2233C208.596 82.9566 212.268 78.4406 212.617 73.5238C212.775 72.2168 212.654 71.2455 212.546 69.953C211.298 67.7204 208.759 67.2608 206.25 66.4142Z" fill="white"/>
<path d="M206.25 66.4142C208.85 63.2878 214.07 54.5516 215.458 53.1547L215.976 53.831C213.522 61.1856 218.496 70.3836 212.617 73.5237C212.775 72.2168 212.654 71.2455 212.546 69.953C211.298 67.7204 208.759 67.2608 206.25 66.4142Z" fill="white"/>
<path d="M204.748 107.834C205.963 107.481 207.175 107.117 208.384 106.743L208.675 105.56C206.585 103.635 205.509 102.9 204.961 100.061L205.172 98.9952C206.677 101.096 209.002 104.888 211.187 105.834C214.616 105.104 215.687 99.0445 221.11 106.292C221.254 111.023 217.502 110.213 218.499 114.237C219.873 115.232 221.162 115.045 222.874 115.047L225.14 115.691C225.583 116.328 226.721 118.103 227.264 118.467L229.647 120.541C229.16 121.714 228.247 122.451 227.332 123.325C227.279 122.654 226.983 121.519 226.826 120.823C220.656 122.155 219.39 122.027 215.243 117.611C208.528 111.286 214.712 110.056 204.748 107.834Z" fill="white"/>
<path d="M227.264 118.467C225.694 119.18 224.331 119.774 222.719 120.386C220.384 120.093 219.954 120.044 218.013 118.76L217.886 117.277C219.806 115.367 220.029 115.761 222.874 115.047L225.14 115.691C225.584 116.328 226.721 118.103 227.264 118.467Z" fill="white"/>
<path d="M215.578 90.9287C216.956 86.3693 226.457 89.0339 229.166 92.7424C229.603 94.8634 229.027 95.8883 228.241 97.8767C226.265 102.626 220.65 104.659 217.452 100.807C216.962 97.5795 216.828 98.8415 218.375 95.6528C218.434 93.8282 216.812 92.3756 215.578 90.9287Z" fill="white"/>
<path d="M820.013 68.4736L819.963 67.3152C823.015 64.1229 822.058 65.0188 826.634 63.5625L826.228 62.9551C829.527 61.6525 829.374 62.3143 830.904 59.7214C830.977 56.2638 829.164 54.0072 828.49 51.0541C838.192 50.5394 857.247 43.6712 863.527 54.0282C863.766 54.8328 863.976 55.6469 864.15 56.4674C864.585 58.5609 864.904 62.0294 863.679 63.8873C858.668 66.5251 827.417 68.0597 820.013 68.4736Z" fill="white"/>
</g>
</mask>
<g mask="url(#mask0_54_164)">
<ellipse cx="416.686" cy="264.055" rx="465.309" ry="484.527" fill="#7B00FF"/>
</g>
<defs>
<clipPath id="clip0_54_164">
<rect width="282" height="914" fill="white" transform="translate(0 282) rotate(-90)"/>
</clipPath>
</defs>
</svg>
